<?xml version="1.0" standalone="no"?>
<!DOCTYPE svg PUBLIC "-//W3C//DTD SVG 20010904//EN"
 "http://www.w3.org/TR/2001/REC-SVG-20010904/DTD/svg10.dtd">
<svg version="1.0" xmlns="http://www.w3.org/2000/svg"
 width="512.000000pt" height="512.000000pt" viewBox="0 0 512.000000 512.000000"
 preserveAspectRatio="xMidYMid meet">

<g transform="translate(0.000000,512.000000) scale(0.100000,-0.100000)"
fill="#000000" stroke="none">
<path d="M4375 3633 c-28 -4 -37 -18 -157 -256 -161 -318 -277 -523 -432 -757
-105 -158 -128 -201 -161 -295 -83 -240 -165 -425 -205 -465 -11 -11 -21 -23
-22 -27 -8 -42 -24 -60 -25 -30 -1 6 -17 48 -37 92 -20 44 -36 86 -36 93 0 23
-21 12 -102 -59 -118 -102 -109 -100 -161 -21 -110 166 -161 295 -347 880 -33
106 -83 247 -109 313 l-49 119 99 0 c54 0 99 3 99 8 0 4 -20 42 -45 84 -64
110 -152 200 -233 240 -64 32 -71 33 -187 33 -98 0 -133 -4 -190 -23 -84 -28
-193 -81 -259 -125 l-49 -33 -45 48 c-25 27 -50 47 -56 45 -6 -2 -28 11 -48
29 -55 49 -135 70 -218 56 -106 -18 -217 -80 -314 -175 -162 -160 -280 -358
-649 -1092 -146 -290 -143 -279 -212 -687 l-4 -28 129 0 c71 0 153 5 182 11
124 26 236 113 301 231 96 174 237 427 257 461 l23 38 -115 -3 -115 -3 80 130
c177 290 351 521 533 706 46 47 80 90 76 94 -4 5 -2 5 5 1 6 -3 15 -2 18 4 4
6 33 32 65 59 32 27 56 53 52 58 -4 4 -3 5 2 1 5 -4 16 -2 25 5 14 10 14 10 3
-5 -11 -14 -10 -27 9 -80 12 -35 25 -67 29 -71 4 -4 21 8 39 29 18 20 33 35
34 33 10 -16 100 -214 115 -254 l20 -50 52 -3 c57 -3 55 -6 36 53 -26 79 81
-172 151 -355 181 -474 265 -658 363 -790 62 -83 133 -152 188 -183 l44 -24
-70 -18 -70 -17 -64 30 c-35 17 -82 47 -105 66 -41 36 -42 36 -134 36 l-93 0
30 -31 c16 -17 56 -45 89 -61 53 -27 75 -32 180 -39 66 -4 300 -6 520 -4 343
3 408 6 455 20 77 24 136 56 196 107 157 131 258 301 593 994 139 288 301 606
401 789 l42 75 -194 -2 c-106 0 -206 -3 -223 -5z m-2680 -165 c4 4 3 -3 -4
-15 -6 -12 -17 -25 -24 -29 -8 -5 -7 -2 2 9 11 14 11 20 0 35 -12 15 -12 16 2
5 9 -7 19 -9 24 -5z m685 -13 c13 -14 21 -25 18 -25 -2 0 -15 11 -28 25 -13
14 -21 25 -18 25 2 0 15 -11 28 -25z m120 -165 c6 -11 8 -20 6 -20 -3 0 -10 9
-16 20 -6 11 -8 20 -6 20 3 0 10 -9 16 -20z"/>
<path d="M4225 3550 c-44 -22 -102 -60 -130 -84 l-50 -45 92 -1 93 0 41 81
c22 45 39 83 37 85 -2 2 -40 -15 -83 -36z"/>
<path d="M1630 3526 c0 -2 8 -10 18 -17 15 -13 16 -12 3 4 -13 16 -21 21 -21
13z"/>
<path d="M4005 1970 l-29 -30 41 0 c26 0 45 6 55 18 31 36 31 42 -5 42 -24 0
-41 -8 -62 -30z"/>
</g>
</svg>
